<?xml version="1.0" encoding="UTF-8"?><svg id="Ebene_2" xmlns="http://www.w3.org/2000/svg" viewBox="0 0 208.35 355.21"><g id="Paths_Kopie"><path d="M205.18,259.9c-.6-3.29-1.3-7.15-2.12-11.7-1.45-8.09-9.36-88.68-4.67-105.6,5.24-18.92,8.73-55.44,8.68-90.89v-.17c-.44-6.1-1.45-16.59-2.87-26.08-2.17-14.44-3.77-17.03-5.65-17.65-.21-.45-.49-.87-.82-1.25-1.21-1.4-3.02-2.1-4.85-1.89-25.52,2.97-26.15,3.76-26.95,4.77-.64,.8-.83,1.73-2.03,8.58-1.71,9.75-4.57,26.06-9.17,37.91-3.56,9.14-6.71,25.35-9.5,39.66-.73,3.76-1.47,7.55-2.2,11.11-9.97-4.91-30.7-2.04-33.28-1.66-.19,.02-19.03,2.23-24.05-8.93-7.96-17.72-11.22-73.98-11.42-77.5,.74-5.8-2.65-11.43-8.18-13.46L53.51,.49c-3.83-1.41-8.06,.29-9.84,3.95-6.43,13.23-21.47,47.8-22.27,82.9-.63,27.61-4.93,37.59-8.06,44.89-1.77,4.12-3.3,7.67-3.56,12.91-.22,4.23-.02,9.68,.2,15.98,.52,14.59,1.17,32.74-2.57,49.49-4.95,22.23-15.26,68.47,2.97,91.46l.43,.54c14.49,18.28,15.11,18.69,33.09,21.99,3.02,.55,6.44,1.18,10.57,2.01,14.73,2.97,28.24,7.85,40.16,12.14,11.54,4.16,21.51,7.75,30.71,9.15,6.26,.95,11.39,2.75,15.92,4.35,4.38,1.54,8.45,2.97,12.31,2.97,3.59,0,6.99-1.24,10.29-4.77,4.26-2.42,40.95-24.05,42.7-50.46,.46-6.92,.95-10.72,1.31-13.5,.9-6.92,.83-7.29-2.68-26.58ZM110.4,109.8c9.7-1.44,26.17-2.1,31.59,1.81-1.32,6.04-2.57,10.78-3.64,12.45-2.68,4.19-11.35,8.1-16.59,7.47-2.26-.27-2.6-1.27-2.71-1.6-2.75-8.04-19.72-8.24-39.37-8.48-1.74-.02-3.48-.04-5.21-.07-5.62-.09-10.39-.78-14.17-2.07-3.05-1.04-5.3-3.65-6.03-6.75,18.7-10.47,13.04-50.86,12.18-56.35,1.65-5.42,3.14-11.79,4.41-18.08,1.67,19.31,4.94,47.69,10.44,59.93,6.46,14.38,28.12,11.86,29.09,11.73Zm-47.7-43.85c.32,4.12,.53,9.19,.29,14.41-.42,9.35-2.37,20.85-8.83,26.42,.93-19.43,3.52-33.41,7.2-38.6,.45-.64,.9-1.39,1.33-2.22Zm140.38,219.91c-.37,2.84-.88,6.74-1.34,13.81-1.27,19.18-24.53,36.49-35.25,43.48-3.81-2.82-7.45-6.11-10.26-9.75-2.63-3.41-4.58-7.16-5.71-11.21-1.12-4.01-1.39-7.67-1.11-12.02,.27-4.35,1.17-8.67,2.41-13.14,1.34-4.82,2.99-9.54,4.77-14.22,.27,2.63,.98,5.22,2.31,7.69,3.26,6.06,9.31,10.47,13.1,15.84,2.89,4.09,4.67,8.6,5.55,13.52,.19,1.09,1.52,1.7,2.52,1.43,1.15-.32,1.62-1.43,1.43-2.52-.8-4.51-2.38-8.87-4.8-12.76-1.96-3.15-4.41-5.94-6.95-8.62-2.25-2.38-4.66-4.81-6.27-7.24-1.83-2.76-2.8-5.55-2.95-8.71-.28-5.81,1.72-11.56,3.91-16.84,.17-.41,.12-.85-.05-1.26,4.31-10.85,8.34-21.83,11.29-33.14,3.72-14.26,5.73-28.99,5.41-43.74-.04-2.03-.13-4.06-.26-6.08-.16-2.62-4.26-2.64-4.1,0,.94,15.11-.55,30.21-4.06,44.93-3.06,12.8-7.55,25.18-12.42,37.39-4.13,10.36-8.65,20.64-11.84,31.35-2.6,8.74-4.26,18.07-2.36,27.13,2.02,9.63,8.27,17.57,15.84,23.59,.3,.24,.62,.45,.92,.69-1.01,.61-1.62,.95-1.66,.98l-.35,.2-.27,.3c-4.59,5.1-8.74,3.92-17.69,.78-4.5-1.58-10.09-3.55-16.8-4.57-8.73-1.32-18.49-4.84-29.79-8.92-12.08-4.35-25.77-9.29-40.84-12.33-4.17-.84-7.61-1.47-10.65-2.03q-16.54-3.04-30.18-20.24l-.43-.54c-16.8-21.19-6.83-65.92-2.04-87.42,3.87-17.35,3.21-35.85,2.68-50.71-.22-6.19-.41-11.53-.21-15.56,.22-4.37,1.46-7.26,3.18-11.25,3.29-7.65,7.8-18.14,8.45-46.68,.78-34.15,15.5-67.95,21.79-80.9,.53-1.08,1.61-1.73,2.76-1.73,.36,0,.72,.06,1.08,.19l12.6,4.63c3.49,1.28,5.61,4.87,5.04,8.53-3.77,24.52-8.17,41.73-12.05,47.2-6.04,8.52-7.75,31.52-8.23,44.47-.23,6.26,3.7,12.03,9.55,14.02,4.26,1.45,9.52,2.23,15.64,2.32,1.73,.03,3.48,.05,5.22,.07,14.02,.17,33.21,.4,34.87,5.22,.93,2.7,3.31,4.42,6.7,4.82,7.05,.84,17.56-3.94,21.22-9.66,2.29-3.59,4.36-13.8,7.55-30.16,2.75-14.1,5.86-30.09,9.26-38.83,4.78-12.29,7.69-28.9,9.43-38.82,.42-2.37,.84-4.81,1.12-6.08,2.35-.56,9.52-1.67,23.67-3.32,.33-.04,.55,.14,.65,.25,.1,.11,.25,.35,.13,.78-3.42,12.74-11.72,51.28-24.01,111.45l-.35,1.7c-2.35,11.48,1.73,19.38,5.94,22.64,2.78,2.16,6.01,2.69,8.63,1.42,1.85-.9,4.96-3.49,5.01-10.76v-.88c.01-21.83,1.15-39.07,3.2-48.56,1.96-9.07,1.91-18.1,1.87-25.35-.03-5.71-.06-10.65,.88-13.68,2.39-7.71,2.92-25.84,2.12-31.4,.05-.22,.1-.43,.15-.64,1.73,7.68,3.71,23.18,4.57,35.36,.05,35.03-3.37,70.99-8.5,89.51-2.69,9.71-1.58,36.67-.17,57.57,1.59,23.57,3.97,45.88,4.75,50.17,.82,4.55,1.52,8.41,2.12,11.71q3.44,18.92,2.64,25.09Zm-11.26-243.61c-.29,1.88-.63,3.53-1.02,4.79-.03,.09-.05,.18-.08,.27,.38-1.74,.74-3.43,1.1-5.06Zm-2.12,19.93c.04,7.39,.09,15.76-1.76,24.31-2.12,9.81-3.29,27.41-3.31,49.57v.85c-.03,3.36-.88,5.77-2.3,6.46-.94,.45-2.27,.12-3.58-.89-3.36-2.61-5.96-9.15-4.18-17.87l.35-1.7c6.04-29.59,11.19-54.26,15.25-73.1-.53,3.41-.51,7.64-.48,12.38Z" fill="#fff"/></g></svg>