<?xml version="1.0" encoding="UTF-8"?><svg id="Ebene_2" xmlns="http://www.w3.org/2000/svg" viewBox="0 0 112.45 122.66"><g id="Illus"><g><ellipse cx="19.39" cy="39.91" rx="1.44" ry="1.04" fill="#fff"/><ellipse cx="42.27" cy="51.35" rx="1.44" ry="1.04" fill="#fff"/><ellipse cx="74.3" cy="8.16" rx="1.44" ry="1.04" fill="#fff"/><ellipse cx="94.76" cy="18.55" rx="1.44" ry="1.04" fill="#fff"/><path d="M46.28,63.59c-2.07,0-4.14-.51-6.03-1.54L1.06,40.76C.4,40.41,0,39.72,0,38.96c0-.75,.42-1.44,1.08-1.79L69.79,.76c1.93-.97,4.12-1.01,6.05-.12,6.6,3.04,28.71,14.29,35.33,17.66,.74,.38,1.22,1.1,1.27,1.94,.05,.83-.33,1.61-1.03,2.08-7.32,4.93-43.69,29.45-58.1,39.13l-.79-1.18,.79,1.18c-2.13,1.43-4.58,2.15-7.03,2.15ZM3.72,38.98l37.88,20.58c3.21,1.75,7.1,1.56,10.13-.47,13.99-9.4,48.7-32.8,57.39-38.65-7.39-3.77-28.15-14.31-34.47-17.22-1.14-.53-2.44-.5-3.56,.06L3.72,38.98Z" fill="#fff"/><path d="M45.79,71.99c-1.58,0-3.16-.4-4.58-1.19L2.23,48.83c-.99-.56-1.6-1.57-1.65-2.7l-.26-6.55,2.83-.11,.26,6.55c0,.14,.08,.27,.21,.34l38.97,21.97c2.15,1.21,4.85,1.09,6.88-.31L109.27,27.11l.34-6.8,2.83,.14-.35,6.94c-.05,.81-.45,1.53-1.11,1.98l-59.9,40.98c-1.58,1.09-3.44,1.64-5.3,1.64Z" fill="#fff"/><path d="M41.55,122.66c-.52,0-1.03-.16-1.48-.46l-5.94-4.12c-.9-.62-1.58-1.49-1.99-2.51l-5.2-13.2-4.45,2.37c-1.77,.94-3.9,.71-5.43-.59l-4.65-3.96c-.96-.82-1.56-2-1.67-3.26-.27-1.21-2.31-11.1-1.03-22.51,1.26-11.24-1.02-22.41-1.05-22.52l2.78-.58c.1,.47,2.4,11.72,1.09,23.42-1.28,11.43,.98,21.58,1,21.68l.03,.23c.03,.53,.28,1.04,.69,1.38l4.65,3.96c.63,.54,1.52,.64,2.26,.25l4.89-2.6c.6-.32,1.31-.37,1.95-.13,.64,.24,1.15,.73,1.4,1.37l5.38,13.67c.19,.49,.53,.91,.96,1.21l5.56,3.85-.81-50.02,2.83-.05,.82,50.54c-.02,1.01-.56,1.87-1.41,2.31-.37,.19-.78,.28-1.18,.28Z" fill="#fff"/><path d="M42.47,122.51l-1.27-2.53,6.06-3.02c.44-.15,.74-.56,.74-1.02v-.14c.02-.11,1.02-10.73,0-20.18-.97-9.06-.05-25.32,0-26.01l2.83,.16c0,.17-.95,16.72,0,25.54,1.02,9.46,.1,19.71,0,20.69-.03,1.62-1.05,3.05-2.58,3.6l-5.79,2.9Z" fill="#fff"/><path d="M95.79,86.79c-.45,0-.9-.14-1.29-.41-.6-.42-.95-1.09-.95-1.82-.1-.89-.44-5.69,.98-22.51,.71-8.43,1.52-24.38,1.53-24.54l2.83,.14c0,.16-.82,16.16-1.54,24.64-1.14,13.54-1.13,19.07-1.05,21.04l2.4-1.95c.06-.25,.05-.81,.05-1.12,0-.25,0-.5,0-.73v-.1c.02-.1,1.07-9.94,1.34-19.13,.1-3.36,1.65-26.31,1.71-27.29l2.83,.19c-.02,.24-1.62,23.87-1.71,27.18-.26,8.95-1.25,18.48-1.34,19.3,0,.17,0,.35,0,.53,.02,1.07,.04,2.82-1.42,3.61l-3.3,2.7-.18,.08c-.29,.13-.6,.19-.9,.19Zm.6-2.23v.02s0-.01,0-.02Z" fill="#fff"/><path d="M95.45,86.79c-2.89,0-7.25-1.34-8.56-1.76-6.1-1.98-6.39-3.09-6.53-3.62l-4.98-15.21-3.65,6.71c-.88,1.5-2.7,2.09-4.26,1.44l-5.08-2.16c-2.55-1.09-5.3-3.59-5.3-6.51v-1.5h2.83v1.5c0,1.49,1.82,3.15,3.58,3.9l5.08,2.16c.25,.1,.54,.01,.68-.22l5.02-9.22c.35-.59,.97-.89,1.61-.81,.64,.09,1.15,.55,1.31,1.17l5.8,17.71c1.42,1.04,9.36,3.71,12.66,3.59l.1,2.83c-.1,0-.21,0-.31,0Zm-12.39-6.27l.03,.09s-.02-.06-.03-.09Zm-8.57-17.07s.02,.08,.04,.12l-.04-.12Z" fill="#fff"/><path d="M72.31,75.56c-1.47,0-3.24-.46-5.34-1.39l1.14-2.59c2.72,1.2,4.75,1.47,5.55,.74,1.18-1.08,.52-4.51,.01-6l2.68-.91c.22,.65,2.07,6.39-.78,9-.84,.77-1.93,1.16-3.27,1.16Z" fill="#fff"/><path d="M103.39,45.34l-1.75-2.23,3.24-2.56c.97-.81,2.07-1.73,2.55-4.41l.73-7.29,2.82,.28-.75,7.45c-.66,3.74-2.39,5.19-3.53,6.15l-.26,.22-3.04,2.39Z" fill="#fff"/></g></g></svg>