<?xml version="1.0" encoding="UTF-8"?><svg id="Ebene_2" xmlns="http://www.w3.org/2000/svg" viewBox="0 0 107.28 131.99"><g id="Haende"><path d="M107.25,63.69c.35-8.6-1.83-12.19-3.93-15.66-.34-.57-.69-1.13-1.02-1.72-.97-1.74-1.94-5.06-2.88-8.26-1.22-4.16-2.36-8.1-3.81-9.96-1.8-2.32-12.27-15.52-15.33-18.03-.56-.46-1.21-1.04-1.94-1.67-2.99-2.63-7.09-6.23-11.06-7.69-2.34-.86-4.54-.74-6.3-.63-.62,.03-1.22,.07-1.71,.05-.14,0-.31-.01-.48-.03-2.16-.12-7.9-.44-8.51,4.35-.25,2.01-.17,3.66-.02,4.84-1.85-.19-4.28-.09-5.25,1.5-1.18,1.91-1.78,5.07-.69,8.01-1.71,.8-2.95,1.99-3.57,3.45-.48,1.14-.8,3.02,.44,5.44,.86,1.69,1.97,3.28,2.95,4.69,1.25,1.79,2.42,3.48,2.58,4.63,.12,.9,.64,2.38,1.29,4.26,1.08,3.12,3.1,8.92,2.25,10.68-.8,1.67-3.07,5.03-5.26,8.27-1.95,2.9-3.8,5.63-4.71,7.31l-.03,.06c-1.92,3.54-3.6,6.61-5.39,19.03-.46-.26-1.03-.22-1.45,.11-4.35,0-10.03,.72-14.41,1.27-1.53,.19-2.91,.37-4.02,.48-.82,.09-1.63,.15-2.41,.21-4.16,.33-8.09,.65-10,3.91C.02,96.99-.64,103.83,.62,112.92c.95,6.84,3.06,15.57,7.75,18.24,.74,.42,1.52,.69,2.31,.79,1.16,.15,2.37-.04,3.64-.58h.02c.14-.07,14.05-6.14,21.68-5.96,7.73,.18,17.34,.41,26.32-9.03,2.2-2.31,4.89-5.19,7.73-8.22,7.97-8.52,17.89-19.12,22.34-23.01,.67-.58,1.35-1.17,2.06-1.76,5.81-4.94,12.4-10.54,12.78-19.68ZM56.46,2.67c-.13,.27-.25,.57-.33,.92-.5,2.04,.18,4.58,2.01,7.56-.42-.14-.84-.26-1.3-.32-1.26-.17-2.38,.02-3.33,.56l-.31-.92s-.73-2.21-.29-5.69c.19-1.49,1.51-2.01,3.57-2.09Zm1.46,22.46c-2.25,.09-3.73-.21-4.38-.91-.78-.84-.59-2.58-.36-4.59,.11-.94,.21-1.92,.23-2.94,.03-1.25,.41-2.29,1.06-2.84,.48-.41,1.13-.56,1.92-.47,.03,0,.05,0,.06,0,3.31,.47,5.26,4.5,5.66,8.04,.33,2.94-3.7,3.61-4.2,3.68h0Zm-10.67-12.97c.24-.3,1.61-.4,3.16-.21,.4,.05,.82,.12,1.24,.22l.67,.15c-.96,1.06-1.5,2.57-1.54,4.34-.02,.9-.12,1.81-.21,2.7-.12,1.05-.23,2.1-.2,3.11-.97-1.42-2-2.63-3.09-3.54l-.05-.09c-1.58-2.71-.68-5.56,.01-6.69Zm3.74,29.7l1.88-2.02c.49-.53,.46-1.36-.07-1.85-.53-.49-1.36-.46-1.85,.07l-.92,.99c-.36-1.06-.64-1.96-.7-2.41-.04-.31-.13-.62-.23-.93l2.16-1.39c.61-.39,.78-1.2,.39-1.81-.39-.61-1.2-.79-1.81-.39l-1.89,1.22c-.48-.79-1.04-1.6-1.65-2.47-.98-1.4-1.99-2.86-2.76-4.38-.62-1.23-.75-2.31-.36-3.23,.38-.9,1.29-1.68,2.55-2.21,4.34,3.74,8.12,13.95,8.45,20.36,.14,2.72-.54,5.05-1.37,6.83-.35-1.87-1.02-4.04-1.81-6.38h0Zm41.79,39.53c-.71,.6-1.4,1.2-2.08,1.78-4.56,3.98-14.11,14.19-22.54,23.19-2.84,3.04-5.52,5.9-7.72,8.21-8.18,8.6-16.78,8.39-24.36,8.22-7.2-.17-18.85,4.51-22,5.83,1.79-3.88,2.44-6.34,1.51-17.82-.87-10.75-6.59-16.59-8.82-18.48,1.51-.65,3.6-.82,6.02-1.02,.81-.06,1.63-.13,2.47-.22,1.12-.12,2.52-.29,4.08-.48,4.48-.56,10.37-1.3,14.56-1.24,1.15,1.36,3.53,4.31,5.05,6.22,.22,.28,.53,.44,.86,.48,.32,.04,.69-.05,.98-.28,.56-.45,.66-1.28,.21-1.84-.32-.4-2.26-2.83-3.84-4.76l.12-.86c0-.07,.02-.12,.02-.18,1.9,.31,5.29,1.11,6.71,2.59,.22,.23,.49,.35,.78,.39,.38,.05,.77-.07,1.07-.35,.52-.5,.54-1.33,.04-1.85-2.1-2.19-6.31-3.08-8.22-3.37,1.65-10.74,3.16-13.53,4.89-16.71l.03-.06c.86-1.57,2.75-4.38,4.58-7.1,1.96-2.91,3.99-5.91,5.06-7.85,.83-.88,4.88-5.56,4.55-12.54,.7-.01,3.15-.08,4.69-.35,.71-.13,1.18-.81,1.06-1.52-.13-.71-.81-1.18-1.52-1.06-1.55,.28-4.42,.32-4.44,.32-.01,0-.03,0-.04,0-.22-1.46-.55-3-.98-4.56,1.77,.1,4.99,.23,6.84-.17,.7-.15,1.15-.85,1.01-1.56-.15-.71-.84-1.16-1.55-1.01-1.75,.37-5.57,.18-7.13,.05-.53-1.53-1.13-3.04-1.81-4.48,.68,.34,1.48,.58,2.45,.7,.8,.1,1.7,.13,2.73,.09h.1c2.48-.31,7.05-2.07,6.53-6.59-.12-1.08-.37-2.17-.71-3.23,1.15,1.14,2.33,2.33,3.48,3.6,.05,.13,.12,.25,.21,.36,2.71,3.2,2.24,14.17,2.06,18.3-.02,.6-.05,1.09-.06,1.46-.09,3.6,2.52,10.31,3.79,11.95l.11,.15c.14,.18,.29,.37,.46,.57,1.31,3.19,3.33,8.55,3.41,9.95,.04,.64,.53,1.14,1.14,1.22,.08,0,.16,.01,.25,0,.72-.05,1.27-.67,1.22-1.39-.1-1.69-1.75-6.12-2.84-8.88,.46-.27,.86-.74,1.24-1.43,3.41,1.16,8.2,2.93,9.32,3.74,.19,.14,.39,.21,.6,.24,.46,.06,.93-.13,1.22-.53,.42-.59,.3-1.4-.29-1.83-1.61-1.17-7.28-3.18-9.89-4.07,.22-.72,.44-1.54,.65-2.47,.16-.71,.28-1.38,.38-2.04,2.4,1.08,7.49,3.43,8.12,3.88,.2,.16,.43,.25,.66,.28,.43,.05,.88-.11,1.18-.47,.45-.56,.37-1.39-.19-1.85-.87-.7-7.68-3.77-9.55-4.6,.05-3.99-1.13-7.18-2.81-10.5,2.88-1.93,6.66-4.36,7.45-4.67,.67-.26,1.01-1.02,.75-1.7-.26-.67-1.02-1.01-1.69-.75-1.2,.46-5.52,3.31-7.73,4.78-.14-.27-.29-.55-.44-.82l-.44-.82c-1.27-3.29-3.21-6.13-5.32-8.62,1.91-.31,4.65-1.1,6.58-3.11,.5-.52,.49-1.35-.03-1.85-.52-.5-1.35-.49-1.85,.03-2.25,2.33-6.33,2.5-6.86,2.52-1.02-1.08-2.04-2.09-3.01-3.05-1.25-1.24-2.44-2.42-3.41-3.52-3.32-4.38-3.46-6.71-3.25-7.71,.18-.88,.73-1.19,.73-1.19,.19-.09,.34-.21,.46-.36,.42,0,.85-.02,1.31-.05,1.6-.09,3.41-.19,5.25,.48,3.51,1.29,7.39,4.7,10.23,7.19,.75,.66,1.42,1.25,2,1.73,2.68,2.21,12.41,14.37,14.93,17.62,1.14,1.47,2.32,5.52,3.36,9.09,1.02,3.5,1.98,6.81,3.1,8.81,.34,.62,.71,1.2,1.07,1.8,1.99,3.28,3.87,6.38,3.55,14.19-.33,8-6.18,12.98-11.85,17.79l.04,.02Zm-15.22-33.1c-.64,2.79-1.16,3.94-1.44,4.4-.15-.17-.31-.38-.43-.54l-.12-.15c-.88-1.14-3.11-6.7-3.23-9.84l3.07-.15c.72-.03,1.28-.65,1.25-1.37-.03-.72-.64-1.28-1.37-1.25l-2.86,.14c.15-3.92,.2-7.95-.17-11.41,.43,.81,.81,1.64,1.14,2.51l.55,1.05c3.04,5.61,5.23,9.66,3.62,16.61h-.01Z"/></g></svg>