<?xml version="1.0" encoding="UTF-8"?><svg id="Ebene_2" xmlns="http://www.w3.org/2000/svg" viewBox="0 0 112.29 136.01"><g id="Haende"><g><path d="M75.44,44.02s-.02-.02-.03-.03c0,0,0,0-.02-.01,0,0,.03,.03,.04,.05,0,0,0,0,0,0Z" fill="#fff"/><path d="M111.36,52.33c.92-1.31,1.04-2.61,.86-4.18-.53-4.63-3.52-8.52-7.92-10.01,.29-.41,.57-.82,.82-1.25,1.8-3.06,2.31-7.24,.73-10.5-.83-1.7-2.43-3.16-4.12-3.98-.94-.45-1.92-.65-2.92-.72,.99-1.31,1.8-2.71,2.36-4.11,.69-1.69,1.08-3.48,1.17-5.3,.09-1.88-.03-4.22-.89-5.93-.87-1.73-3.01-2.97-4.89-3.22-2.11-.28-3.59,.73-5.12,2.04-1.32,1.13-2.67,2.23-4.01,3.34,.1-1.61-.03-3.23-1.01-4.5-1.36-1.75-3.69-3.24-5.85-3.74-3.02-.69-5.93,.07-8.67,1.36-3.02,1.42-5.97,3.11-8.75,4.96-2.84,1.88-5.56,3.93-8.49,5.68-2.53,1.51-5.19,2.87-7.34,4.91-2.28,2.16-3.35,4.94-4.63,7.73-2.68,5.83-7.71,9.95-11.29,15.17-1.9,2.77-3.12,5.78-3.64,9.11-.62,3.91-.58,7.91-1.76,11.72C18.93,79.03,10.39,96.56,.5,113.31c-.02,.04-.04,.08-.06,.12-.08,.12-.15,.25-.2,.38-1.79,4.08,6.8,11.81,19.19,17.26s23.9,6.56,25.69,2.47c.15-.33,.22-.69,.23-1.07,.95-2.73,2.38-5.31,3.82-7.8,1.83-3.15,3.84-6.2,5.96-9.18,.9-1.27,1.86-2.49,2.76-3.75,.34-.47,.77-1.2,1.02-1.96,7.93-5.08,15.56-10.62,22.82-16.62,2-1.65,3.89-3.4,5.74-5.21,.84-.82,2.83-2.3,3.07-3.74,.28,0,.56-.12,.78-.32,1.68-1.53,3.3-3.14,4.74-4.89,.73-.89,1.45-1.82,2-2.84,.35-.66,.67-1.41,.75-2.17,3.34-1.04,7.23-2.42,9.55-5.04,1.55-1.75,2-4.28,1.48-6.53-.54-2.37-2.17-4.17-4.29-5.17,.84-.54,1.67-1.1,2.47-1.7,1.24-.93,2.45-1.94,3.34-3.22Zm-7.63-25.12c1.61,2.97,.67,6.79-1.13,9.42-2.24,3.27-5.08,6.25-7.65,9.27-.97,1.14-2,2.21-3.23,3.03-.96,.44-1.92,.86-2.89,1.26-.84-3.33-3.03-6.26-5.99-8.01-1.26-.74-2.4,1.22-1.14,1.96,.34,.2,.67,.42,.99,.65,.09,.07,.16,.12,.33,.26,.15,.13,.3,.26,.45,.39,.29,.27,.57,.55,.83,.85,.3,.33,.42,.49,.64,.79,.81,1.14,1.31,2.21,1.65,3.48-.17,.01-.33,.04-.5,.05-2.89,.18-5.8,.21-8.71,.24,.59-.9,.73-1.96,.72-3.04-.02-1.47,.08-3.17-.5-4.55-.67-1.59-2.22-1.71-3.75-1.84-.64-.05-1.29-.08-1.93-.06,1.09-.65,2.23-1.21,3.39-1.69,1.13-.46,2.3-.86,3.49-1.15,1.07-.26,2.16-.37,3.09,.31,1.14,.83,2.22-.96,1.26-1.85,1.69-1.71,3.16-3.62,4.87-5.3,3.21-3.15,6.94-5.64,10.92-7.72,.52,.06,1.03,.15,1.52,.35,1.31,.54,2.6,1.65,3.27,2.9Zm-29.36,28.06c-.12-.73-.32-1.44-.63-2.1,2.31-.04,4.65-.03,6.98-.07-.02,0-.03,.01-.05,.02-2.14,.63-4.26,1.26-6.3,2.15Zm.96,5.63c.06,.01,.13,.02,.16,.03,.11,.02,.21,.05,.32,.08,.06,.02,.15,.06,.19,.09-.02-.01-.06-.04-.14-.08,.08,.05,.17,.08,.25,.12,.08,.04,.16,.09,.23,.14,0,0,0,0,.01,0,.12,.11,.22,.22,.33,.34,0,.01,.02,.02,.03,.04,.05,.08,.09,.15,.14,.23,.02,.04,.04,.08,.06,.12,.01,.04,.03,.07,.04,.11,.05,.15,.08,.31,.11,.47,0,0,0,0,0,0,0,.08,.01,.17,.01,.25,0,.08,0,.17,0,.25,0,.03,0,.1-.01,.16,0,.03,0,.06-.01,.07-.02,.09-.04,.17-.06,.26-.02,.07-.04,.15-.07,.22,0,.01,0,.02-.01,.03-.07,.14-.14,.27-.22,.4,0,.01-.02,.02-.02,.03-.04,.05-.09,.1-.13,.15-.05,.05-.1,.09-.15,.14-.02,.01-.04,.03-.06,.04-.07,.04-.14,.08-.21,.12-.01,0-.02,0-.03,.01-.08,.03-.16,.05-.24,.06-1.19-.14-2.38-.4-3.56-.81,.54-.95,1.02-1.92,1.41-2.92,.16-.04,.33-.09,.5-.12,.06-.01,.12-.02,.17-.03,.13-.01,.25-.02,.38-.03,.12,0,.24,0,.36,0,.05,0,.11,0,.16,0,.02,0,.05,0,.09,0Zm1,.38s-.05-.04,0,0h0Zm.03,.02s.05,.04,.08,.06c-.02-.01-.05-.04-.08-.06Zm.52,.67s-.01-.04,0,0h0Zm-1.04,6.7s.11,.02,.16,.02c.16,.03,.32,.06,.47,.09,.17,.04,.33,.08,.49,.14,.09,.03,.18,.06,.27,.09,.03,.01,.07,.03,.1,.04,0,0,0,0,0,0,.17,.09,.35,.17,.52,.27,.08,.05,.16,.1,.24,.15,.04,.03,.09,.06,.13,.1-.24-.17-.01,0,.03,.03,.15,.13,.28,.28,.42,.43,0,0,0,0,0,0,.03,.04,.06,.08,.08,.12,.08,.12,.15,.24,.21,.36,.03,.06,.06,.11,.08,.17,0,0,0,0,0,0,0,0,0,0,0,0,.04,.11,.08,.23,.11,.34,.04,.14,.07,.28,.1,.42,0,.02,0,.06,.01,.09,0,.03,0,.05,0,.08,0,.08,0,.17-.01,.25,0,.05-.02,.09-.03,.14-.05,.25-.13,.49-.21,.73-.02,.04-.03,.09-.05,.13,0,.02-.02,.04-.02,.05-.06,.12-.12,.24-.18,.36-.06,.11-.13,.23-.2,.34-.03,.05-.13,.19-.14,.21-.06,.07-.12,.14-.19,.21-.03,.03-.07,.07-.1,.1,.01,0,.01,0,.03-.01,0,0-.02,.01-.03,.02,0,0,0,0-.01,.01-.02,.02-.03,.03-.04,.03,0,0,0,0,0,0,0,0,0,0-.01,0,0,0,0,0,0,0-.04,0-.13,.03-.1,.04-.29,.02-.58,.02-.88,0-.07,0-.14-.01-.21-.02-.02,0-.05,0-.07,0-.2-.03-.4-.07-.59-.11-.63-.13-1.26-.29-1.88-.46-1.07-.51-2.08-1.33-1.73-2.6,.35-1.28,1.12-1.79,2.28-2.26,.17-.07,.33-.13,.49-.2,.14,.07,.3,.11,.47,.13Zm3.44,2.89s0,.02,0,0h0Zm-2.38,2.62s.02,0,0,0h0Zm-10.2-28.09c.14-.54,.46-1.01,.84-1.43,1.6-.83,3.36-1.09,5.15-1.04,.76,.02,1.72,.06,2.36,.2,.11,.02,.21,.06,.31,.09-.19-.06-.1-.03,.01,.03,0,0,.02,.02,.03,.03-.04-.05,0-.01,.04,.04,.01,.02,.03,.03,.04,.05-.02-.02-.03-.03-.04-.05,.01,.02,.02,.04,.03,.05,0,.02,.02,.05,.04,.08,.03,.09,.06,.17,.08,.26,.03,.12,.06,.25,.08,.38,0,.05,.02,.1,.02,.15,0,.02,.01,.1,.01,.15,.07,.75,.08,1.5,.1,2.25,0,.45,.01,.89-.01,1.34,0,.03,0,.06,0,.09-.01,.07-.02,.15-.04,.22-.02,.1-.05,.2-.08,.3-.01,.04-.02,.06-.02,.08,0,0-.02,.02-.03,.04-.05,.07-.09,.15-.14,.22,0,0-.08,.11-.14,.17-.04,.04-.09,.08-.13,.12-.02,.01-.01,.01-.02,.02,0,0,0,0,0,0-.12,.09-.25,.17-.39,.24-.21,.11-.49,.21-.87,.31-.42,.11-.84,.18-1.27,.23-.09,0-.17,.04-.26,.07-.12,0-.25,0-.39,.03-1.74,.46-3.65-.33-4.69-1.78-.59-.83-.9-1.92-.63-2.93ZM91.7,7.89c.69-.58,1.36-1.19,2.07-1.75,.48-.38,1.01-.59,1.55-.69,.4,.57,.31,1.32,.32,2.03,0,.23-.05,.61,.03,.83,0,0,0,.03,0,.07-.04,.05-.1,.13-.14,.16-.44,.38-.9,.74-1.33,1.13-1.34,1.22-2.54,2.57-3.71,3.95-.94,.08-1.88,.16-2.82,.16-.35,0-.61,.14-.8,.34,.08-.8,.16-1.6,.24-2.4,1.5-1.31,3.06-2.55,4.59-3.82Zm-21.67-2.73c2.41-1.32,4.95-2.8,7.77-2.91,2.4-.09,4.61,.94,6.32,2.59,1.67,1.61,.96,4.34,.76,6.41-.23,2.38-.44,4.77-.82,7.13-.25,1.59-.58,2.53-1.36,3.86-.86,1.47-1.71,3.23-2.98,4.4-1.03,.95-1.98,1.94-2.91,2.95,.05-.89-.16-1.81-.78-2.73-.77-1.15-1.99-2.18-3.24-2.75-1.44-.65-2.98-.66-4.39,.07-.65,.33-1.2,.82-1.75,1.29-.47,.4-.91,.82-1.3,1.3-.34,.43-.68,.89-.99,1.37,0-.03,0-.06,.01-.08,.48-2.82,1.54-5.82,2.89-8.34,1.46-2.72,3.91-5.16,7.17-5.17,1.46,0,1.46-2.27,0-2.27-1.32,0-2.49,.27-3.54,.73,.07-.37,.15-.74,.25-1.1,.11-.42,.25-.83,.4-1.24,.03-.09,.07-.18,.1-.27,.01-.03,.08-.2,.1-.24,.08-.18,.16-.36,.25-.54,.26-.53,.16-1.25-.41-1.55-.51-.27-1.28-.16-1.55,.41-.88,1.84-1.42,3.79-1.59,5.83,0,.1,0,.19,.03,.28-.92,.81-1.72,1.79-2.41,2.87-.03,0-.06,0-.08-.01-.25-.04-.5-.1-.75-.17-.26-.07-.53-.16-.78-.26-.06-.02-.12-.05-.17-.07,0,0,0,0,0,0-.14-.07-.28-.13-.42-.2-.28-.14-.55-.3-.81-.47-.13-.09-.26-.18-.39-.27-.01-.01-.03-.02-.04-.04-.07-.06-.14-.12-.21-.18-.26-.23-.5-.47-.72-.73-.05-.05-.09-.11-.14-.17-.02-.02-.04-.05-.05-.07-.11-.15-.21-.31-.31-.47-.12-.19-.22-.39-.32-.59-.04-.07-.13-.32-.05-.11-.04-.1-.08-.21-.12-.31-.16-.46-.27-.93-.35-1.41-.03-.19-.14-.36-.28-.49,.79-.54,1.58-1.09,2.37-1.63,2.45-1.69,4.97-3.21,7.58-4.64Zm-4.12,28.29c-.28-.41-.52-.85-.6-1.36,.03,.16-.01-.24-.01-.22,0-.11,0-.21,.01-.32,0-.03,.04-.23,.04-.23,.04-.15,.08-.3,.13-.45,.01-.03,.02-.06,.03-.08,0,0,0-.01,.01-.03,.04-.09,.08-.17,.12-.26,.1-.2,.21-.39,.32-.58,.26-.43,.53-.87,.82-1.29,.53-.77,1.37-1.54,2.17-2.13,.87-.64,1.72-.83,2.71-.45,.26,.1,.52,.25,.75,.4,.15,.1,.3,.2,.44,.31,0,0,.01,.01,.02,.01,.13,.1,.26,.21,.39,.32,.15,.13,.29,.26,.43,.41,.06,.06,.12,.13,.18,.19,.04,.04,.07,.08,.11,.12,0,0,0,0,0,0,.12,.19,.25,.36,.35,.56,.02,.04,.04,.08,.06,.13,.03,.11,.08,.22,.1,.33,.03,.11,.07,.52,.04,.13,0,.13,.02,.26,.02,.39,0,.1,0,.19-.02,.28,0-.04-.04,.26-.06,.34-.04,.16-.1,.32-.16,.48-.02,.04-.04,.09-.05,.11-.06,.11-.11,.22-.18,.33-.25,.44-.46,.71-.71,1-.93,1.07-2.05,1.96-3.21,2.76-.06,.04-.1,.1-.15,.14-.79,.02-1.6-.16-2.38-.48-.6-.24-1.2-.53-1.73-.9Zm19.75,53.1c-4.89,4.75-10.28,8.95-15.77,12.98-3.7,2.71-7.49,5.29-11.34,7.78-.03-.02-.04-.05-.07-.07-.54-.42-1.36-.41-2.01-.48-1.05-.11-2.09-.19-3.13-.36-3.24-.51-6.85-1.52-8.95-4.24-.88-1.14-2.85-.01-1.96,1.14,3.42,4.44,8.99,5.19,14.19,5.73,.09,0,.18,0,.26,0,0,.01,0,.03,0,.04-.11,.08-.21,.23-.3,.44-.23,.51-.59,.96-.92,1.4-.88,1.18-1.76,2.35-2.61,3.55-2.04,2.88-3.99,5.84-5.77,8.89-1.1,1.88-2.19,3.83-3.09,5.84-2.61-4.04-9.49-9.06-18.28-12.92-8.74-3.84-17.02-5.52-21.79-4.75,9.27-16.04,17.31-32.77,24.04-50.03,.03-.09,.06-.17,.07-.25,1.63-5.53,.74-11.66,3.28-16.93,2.16-4.47,5.85-7.91,8.92-11.73,1.54-1.92,2.96-3.93,4.02-6.17,1.19-2.5,2.06-5.2,4.03-7.24,1.36-1.41,3.02-2.47,4.7-3.46,.02,.1,.04,.19,.09,.29,.68,1.41,1.36,2.81,2.05,4.22,.26,.53,1.06,.72,1.55,.41,.55-.35,.68-.98,.41-1.55-.68-1.41-1.36-2.81-2.05-4.22-.04-.09-.12-.15-.19-.22,.02-.01,.04-.02,.06-.03,1.05-.62,2.08-1.27,3.1-1.94,.59,3.28,3.09,5.75,6.23,6.71,.16,.05,.33,.08,.5,.12-.81,1.65-1.45,3.4-1.98,5.04-.14,.45-.28,.91-.41,1.38-1.46,.26-2.91,.57-4.34,.93-.02-.12-.06-.25-.14-.36-.94-1.37-2.36-2.44-3.63-3.48-1.31-1.07-2.64-2.12-4.02-3.09-.49-.34-1.28-.1-1.55,.41-.31,.58-.11,1.19,.41,1.55,.53,.37,1.05,.77,1.57,1.16,.09,.07,.17,.13,.26,.2,.04,.03,.07,.05,.11,.08,.18,.14,.37,.29,.55,.43,.36,.28,.72,.57,1.07,.86,.71,.58,1.4,1.17,2.07,1.78,.27,.25,.53,.5,.78,.76,.1,.1,.19,.21,.28,.31-.85,.26-1.7,.54-2.53,.84-2.56,.95-5.23,2-7.48,3.56-2.32,1.61-4.03,3.8-4.56,6.62-.62,3.24,.06,6.54-.24,9.8-.13,1.45,2.14,1.44,2.27,0,.27-2.94-.34-5.92,.1-8.85,.41-2.75,2.05-4.71,4.37-6.13,4.25-2.6,9.28-4.07,14.17-5.02-.15,1.21-.15,2.43,.15,3.6,.66,2.65,3.12,4.17,5.62,4.88,6.17,1.75,8.99-4.75,12.89-8.05,1.58-1.34,2.62-3.1,3.67-4.87,.91-1.53,1.53-2.83,1.82-4.6,.21-1.26,.37-2.52,.51-3.79,.17,.32,.47,.56,.94,.56,1.08,0,2.17-.1,3.24-.2,.35-.03,.67-.08,.93-.34,.22-.22,.41-.49,.62-.73,.51-.6,1.03-1.18,1.57-1.76,.63-.67,1.29-1.32,1.98-1.94,.73-.65,1.68-1.18,1.88-2.21,.09-.48,.02-.98,.02-1.47,0-.42,0-.84-.04-1.25,0-.09-.03-.18-.04-.26,.44,.24,.85,.55,1.2,.93,1.08,1.15,1.09,3.5,1.06,5-.03,1.58-.35,3.14-.9,4.62-1.01,2.73-2.91,5.19-5.23,6.93-2.18,1.64-4.89,2.82-7.66,2.47-1.44-.18-1.43,2.09,0,2.27,.77,.1,1.52,.09,2.27,.02-.69,.58-1.36,1.18-2.01,1.81-1.95,1.9-3.57,4.11-5.54,5.98-.06,.06-.11,.12-.15,.18-1.52-.15-3.15,.33-4.55,.8-2.36,.79-4.63,1.88-6.7,3.25-1.22,.81-2.64,1.75-3.7,2.92,0,0-.01,.01-.01,.02-.57,.64-1.04,1.34-1.31,2.13-.71,2.12,.1,4.51,1.66,6.03,1.3,1.26,3.05,1.98,4.83,1.96,2.44,2.8,.65,7.19-1,9.92-2.25,3.72-4.62,7.42-7.08,11.01-1.53,2.23-3.25,4.48-5.39,6.16-2.68,2.1-5.92,3-9.29,3.03-1.46,.02-1.46,2.28,0,2.27,5.62-.06,10.34-2.43,13.92-6.71,2.17-2.59,3.95-5.45,5.77-8.29,.98-1.53,2.06-3.06,3.06-4.63,.05,.03,.11,.06,.17,.08,.83,.31,1.68,.54,2.53,.73-.91,.37-1.7,.76-2.35,1.6-.77,1.01-1.34,2.42-1.19,3.71,.2,1.68,1.54,2.81,3.06,3.52,.11,.08,.23,.14,.38,.18,.04,.01,.09,.02,.13,.04,.65,.26,1.31,.45,1.92,.57,1.44,.29,2.9,.42,4.37,.47,0,.01,0,.02,.01,.03,1.52,2.61,3.68,5.57,6.58,6.75,.21,.08,.82,.43,1.26,.61-.73,.8-1.51,1.56-2.28,2.31Zm10.33-11.33c-.53,.94-1.13,1.72-1.79,2.49-1.38,1.64-2.91,3.15-4.49,4.59-.04,.04-.06,.1-.1,.14-.96-.66-2.27-.82-3.19-1.53-1.46-1.13-2.64-2.52-3.65-4.05,4.53-.15,9.08-.9,13.46-2.1-.08,.15-.15,.31-.24,.46Zm7.92-16.19c3.35,1.09,5.32,5.57,2.73,8.44-2.02,2.25-5.52,3.38-8.29,4.29-4.01,1.32-8.2,2.21-12.41,2.62-1.77,.17-3.55,.26-5.33,.22,.1-.18,.21-.35,.29-.53,.58-1.26,.83-2.54,.36-3.89-.43-1.22-1.25-2.22-2.37-2.87,.15-.04,.29-.08,.44-.12,6.69-.33,13.48-3.36,19.27-6.16,1.59-.77,3.17-1.57,4.71-2.44,.13,.19,.32,.34,.59,.43Zm-15.46,3.81c-1.94,.68-3.93,1.27-5.94,1.64-.03,0-.06-.02-.09-.01-1.07,.05-2.08,.2-3.06,.42-.16,.01-.32,.02-.48,.02,.14-.29,.25-.6,.32-.9,.42-1.9-.33-4.08-2.18-4.93-.85-.39-1.77-.5-2.68-.42,.06-.33,.09-.66,.12-1,.1-.02,.2-.05,.3-.1,2.18-1.05,4.51-1.66,6.83-2.34,2.81-.84,5.55-1.86,8.24-3,.86-.28,1.67-.63,2.43-1.06,.25-.11,.51-.22,.76-.34,.26-.12,.42-.29,.51-.49,1.07-.78,2.07-1.72,3.01-2.82,1.56-1.83,3.09-3.68,4.64-5.52,.56-.67,1.13-1.33,1.69-2.01,.11,.09,.24,.16,.41,.21,3.69,1.11,6.24,4.31,6.69,8.12,.16,1.32,.06,2.12-.78,3.14-.9,1.1-2.07,1.99-3.23,2.8-5.28,3.7-11.45,6.45-17.51,8.58Z" fill="#fff"/><path d="M76,61.1s.03,.01,0,0h0Z" fill="#fff"/><path d="M78.07,74.18s.05-.03,.07-.04c0,0,0,0,0,0-.04,.02-.06,.03-.07,.04,0,0,0,0,0,0Z" fill="#fff"/><path d="M96.74,28.05c-.14,.62,.19,1.2,.79,1.39,.13,.04,.26,.09,.39,.14,0,0,.03,0,.05,.01,0,0,0,0,.03,.01,.03,.01,.07,.03,.1,.05,.25,.11,.5,.24,.73,.37,.23,.13,.45,.27,.66,.42,.05,.04,.1,.07,.15,.11,0,0,0,0,.01,0,.11,.09,.21,.17,.31,.26,.2,.17,.39,.35,.57,.55,.09,.1,.19,.2,.28,.31,.04,.05,.08,.1,.12,.14,0,0,.02,.02,.03,.03,.18,.17,.32,.45,.45,.66,.14,.23,.28,.48,.4,.72,.26,.53,1.06,.72,1.55,.41,.55-.35,.69-.98,.41-1.55-1.12-2.29-3.22-4.04-5.63-4.83-.56-.18-1.26,.21-1.39,.79Zm1.23,1.55c.05,.01,.12,.03,.13,.05-.07-.03-.11-.05-.13-.05Z" fill="#fff"/></g></g></svg>