<?xml version="1.0" encoding="UTF-8"?><svg id="Ebene_2" xmlns="http://www.w3.org/2000/svg" viewBox="0 0 115.49 139.33"><g id="Haende"><path d="M115.41,122.5c-1.11-5.55-6.89-13.65-12.2-15.53-1.29-1.6-7.77-9.38-14.64-13.57,2.35-1.12,4.39-4.48,6.37-7.74,1.14-1.88,2.32-3.83,3.16-4.51,1.85-1.52,3.6-3.34,3.85-6.25,.13-1.53,3.01-7.72,4.79-11.26l.25-.5-.24-.51c-.04-.07-.4-.8-1.28-1.6,2.39-.6,3.42-2.02,3.86-3.18,.8-2.1,.12-4.39-.49-5.08-1.6-1.84-4.94-6.52-6.22-8.47-.38-.57-.93-1.5-1.51-2.49-1.88-3.17-3.4-5.67-4.52-6.59-4.33-3.56-13.34-6.22-21.29-8.56-5.1-1.51-10.38-3.07-11.52-4.19C58.23,16.94,30.07,1.54,28.62,.75c-.07-.06-.12-.14-.19-.2-3.28-2.47-12.02,3.59-19.53,13.53C1.4,24.03-2.03,34.1,1.24,36.57c0,0,0,0,0,0,.07,.14,.16,.27,.29,.37,1.05,.87,2.16,1.79,3.33,2.74,9.83,8.1,23.29,19.18,25.42,24.74,.8,2.09,1.51,4.45,2.26,6.95,1.96,6.52,3.99,13.27,8.03,15.95,1.68,1.11,4.76,3.04,8.33,5.27,.04,.12,.1,.25,.18,.35,2.6,3.25,9.56,12.32,10.58,15.24,.96,2.75,2.51,4.39,3.64,5.58,.49,.51,.9,.96,1.12,1.33,.84,1.46,5.7,9.57,5.94,9.97,.59,.88,2.15,2.16,4.47,2.16,.71,0,1.5-.12,2.35-.41,2.44-.83,3.58-2.41,4.12-3.7,.18,.13,.36,.24,.54,.34,.73,.42,2.42,2.92,3.92,5.14,3.13,4.62,6.68,9.86,9.97,10.64,.26,.06,.51,.09,.77,.09,2.89,0,5.77-3.62,6.44-6.45,.49-2.06-.56-4.89-1.99-7.56,2.85,2.26,5.73,4.17,8.23,4.66,.16,.03,.33,.05,.5,.05,1.08,0,2.3-.62,3.44-1.77,1.32-1.32,2.71-3.63,2.28-5.77Zm-26.51-52.94c-4.74,1.17-7.03,4.04-8.07,5.93-1.08-.95-2.96-2.32-6.22-4.14-3.37-1.88-5.51-2.58-6.86-2.73-.07-1.07-.47-2.61-1.8-4.46-.15-.2-.35-.32-.57-.4,1.45-4.18-.02-7.27-.11-7.44,0-.02-.02-.03-.03-.04,2.22-3.05,3.33-5.82,3.8-7.24,4.18,1.09,8.56,1.54,12.1,1.9,2.26,.23,4.25,.43,5.31,.73,1.88,3.43,5.17,6.09,8.69,7.74-4.07,1.92-5.75,7.99-6.23,10.16Zm-16.6,54.28s-1.05-1.76-2.25-3.76c.41-.11,1.13-.19,2.17,.14,.8,.25,1.31,2.46,1.36,4.52-.82-.3-1.23-.82-1.28-.89Zm4.14,.8c-.19,.07-.37,.12-.55,.16-.02-1.81-.36-5.96-2.97-6.78-1.98-.62-3.35-.26-4.06,.06-1.09-1.83-2.11-3.54-2.44-4.12-.17-.3-.39-.59-.63-.88,1.34-.53,2.43-1.69,2.78-3.1,.15-.62-.23-1.24-.84-1.39-.62-.15-1.24,.23-1.39,.84-.24,.96-1.29,1.72-2.26,1.68-.03,0-.05,.01-.07,.01-.79-.93-1.6-2.08-2.16-3.68-.83-2.38-4.61-7.63-7.5-11.46,2.88,1.79,6.04,3.75,8.98,5.6,.03,.09,.05,.19,.11,.27,1.07,1.62,3.33,4.1,5.52,6.49,2.15,2.35,4.37,4.77,5.03,5.94,.91,1.6,3.15,4.9,5.43,7.2-.17,.79-.79,2.4-2.98,3.15Zm19.82,12.35c-1.55-.37-3.58-2.67-5.52-5.29,.24-.05,.47-.15,.65-.33,.03-.03,.73-.75,2.44-.56,.82,.09,2.28,3.09,3.01,6.17-.2,.04-.4,.05-.58,0Zm4.44-4.65c-.25,1.06-.95,2.26-1.77,3.18-.64-2.35-2.2-6.79-4.83-7.08-2.98-.33-4.36,1.2-4.51,1.37-.04,.05-.06,.11-.09,.16-.64-.92-1.26-1.83-1.83-2.67-.7-1.04-1.31-1.92-1.85-2.69,2.02-.77,3.68-2.47,4.35-4.51,.2-.6-.13-1.25-.73-1.45-.6-.2-1.25,.13-1.45,.73-.51,1.57-1.88,2.84-3.49,3.25-.05,.01-.09,.05-.14,.07-.5-.59-.95-1-1.37-1.24-2.16-1.24-5.51-5.71-7-8.32-.79-1.39-3-3.8-5.33-6.36-.4-.44-.81-.88-1.21-1.32,2.61,1.69,4.46,2.94,4.82,3.33,.85,.99,3.23,2.03,7.36,3.79,3.39,1.44,7.23,3.07,9.47,4.6,1.05,.71,2.3,1.74,3.64,2.89,2.88,3.72,6.58,9.66,5.96,12.28Zm11.02-5.96c.1-1.03-.14-2.14-.73-3.15-.77-1.33-1.94-2.29-3.1-3.12-.72-.52-1.58-1.1-2.6-1.38-1.27-.34-2.56-.11-3.45,.62-.49,.4-.56,1.13-.16,1.62,.4,.49,1.13,.56,1.62,.16,.3-.25,.85-.32,1.39-.17,.65,.17,1.27,.6,1.85,1.02,.95,.68,1.9,1.45,2.45,2.41,.42,.74,.64,1.82,.18,2.59-.11,.19-.15,.39-.15,.59-3.23-.97-7.61-4.76-11.17-7.85-.49-.43-.98-.85-1.45-1.26-.04-.05-.07-.08-.1-.13,1.83-1.23,3.45-3.62,3.38-5.43-.03-.63-.56-1.14-1.2-1.1-.63,.03-1.13,.56-1.1,1.2,.05,1.14-1.8,3.38-3.03,3.76-.7-.56-1.37-1.08-1.98-1.49-2.43-1.65-6.38-3.33-9.86-4.81-1.93-.82-4.2-1.79-5.51-2.5,.16-.03,.31-.07,.45-.16,1.96-1.16,5.38-3.47,6.18-5.92,.21-.63-.13-1.31-.76-1.52-.63-.21-1.31,.13-1.52,.76-.29,.86-1.37,2.01-2.97,3.19,.11-1.25-.04-2.53-.46-3.73-.22-.63-.9-.96-1.53-.74-.63,.22-.96,.9-.74,1.53,.54,1.54,.48,3.25-.16,4.68-.1,.23-.12,.47-.1,.7-2.25-1.77-9.91-6.57-20.89-13.39-5.33-3.31-10.36-6.44-12.68-7.97-3.35-2.22-5.26-8.56-7.1-14.69-.73-2.43-1.48-4.94-2.32-7.11-2.35-6.12-15.52-16.97-26.11-25.69-.47-.38-.92-.76-1.37-1.13,4.19-1.3,10.33-6.48,15.81-13.75,5.53-7.33,8.84-14.72,8.89-19.09,6.87,3.8,28.02,15.68,32.52,20.15,1.47,1.46,5.5,2.7,12.48,4.76,6.62,1.95,14.68,4.34,19.13,7.18-.09,.07-.18,.14-.24,.24-.82,1.23-2.11,2.19-3.52,2.62-.61,.19-.95,.83-.76,1.44,.15,.49,.61,.81,1.1,.81,.11,0,.23-.02,.34-.05,.91-.28,1.76-.71,2.53-1.26-.31,1.27-.73,2.51-1.28,3.7-.27,.58-.02,1.26,.56,1.53,.16,.07,.32,.11,.48,.11,.43,0,.85-.25,1.04-.66,.98-2.1,1.61-4.32,1.9-6.62,.97,1.29,2.27,3.5,3.21,5.09,.62,1.06,1.16,1.97,1.57,2.59,.08,.12,.17,.25,.26,.39-.09,.06-.18,.12-.25,.21-.63,.8-1.34,1.74-1.89,2.82-.18,.36-.35,.64-.49,.87-.64,1.06-.98,1.87,.16,3.41,.52,.7,2.97,3.78,4.66,4.92,.2,.13,.42,.2,.64,.2,.37,0,.73-.18,.95-.51,.36-.53,.22-1.24-.31-1.6-1.23-.83-3.4-3.43-4.09-4.38-.17-.24-.25-.37-.28-.44,.05-.1,.15-.27,.24-.41,.17-.27,.36-.6,.58-1.03,.39-.77,.92-1.5,1.41-2.14,1.57,2.23,3.62,5.03,4.78,6.35,.2,.32,.58,1.82,.02,2.99-.45,.95-1.45,1.52-2.96,1.71-5.08,.65-12.95-2.96-15.87-8.74l-.19-.38-.05-.02c-.83-1.38-.96-2.31-1.05-3.05-.04-.33-.08-.64-.17-.96-.17-.61-.81-.97-1.42-.8-.61,.17-.97,.81-.8,1.42,.05,.19,.07,.39,.1,.62,.06,.52,.16,1.19,.45,2.04-1.05-.15-2.32-.28-3.78-.43-5.19-.52-12.29-1.23-17.47-3.94-.56-.29-1.26-.08-1.55,.48-.29,.56-.08,1.26,.48,1.55,1.25,.66,2.61,1.19,4,1.65-.83,2.41-3.75,9.24-11.47,13.81-.55,.32-.73,1.03-.4,1.58,.21,.36,.6,.56,.99,.56,.2,0,.4-.05,.59-.16,2.95-1.75,5.23-3.78,7.01-5.8,.36,1.61,.51,4.93-2.77,8.7-.42,.48-.37,1.21,.11,1.62,.22,.19,.49,.28,.75,.28,.32,0,.64-.13,.87-.4,.78-.9,1.38-1.78,1.87-2.63,1.37,2.13,1.06,3.44,1.03,3.54-.01,.04,0,.08-.02,.12-.02,.07-.03,.15-.03,.22,0,.07,0,.15,.02,.22,.01,.07,.03,.14,.05,.2,.03,.08,.06,.14,.11,.21,.02,.03,.03,.07,.05,.11,.02,.03,.05,.04,.07,.06,.04,.05,.09,.08,.14,.12,.07,.05,.14,.1,.22,.13,.03,.01,.05,.04,.08,.05,.03,0,.05,0,.08,.01,.07,.02,.13,.03,.2,.04,.04,0,.08,.02,.12,.02,.03,0,.05-.01,.08-.01,.05,0,.09-.01,.14-.02,.08-.02,.15-.04,.22-.07,.03-.01,.05-.01,.08-.02,.23-.03,1.82-.12,6.47,2.47,4.34,2.42,5.96,3.92,6.47,4.48-.23,2,1.26,4.5,1.59,5.03,.22,.35,.59,.54,.97,.54,.21,0,.42-.06,.61-.18,.54-.34,.7-1.05,.36-1.59-.88-1.4-1.42-3.02-1.23-3.65l.04-.14c.05-.19,1.3-4.46,6.86-5.98,.33,1.42,.98,2.76,1.91,3.87,.23,.27,.55,.41,.88,.41,.26,0,.52-.09,.74-.27,.49-.41,.55-1.13,.14-1.62-1.06-1.26-1.65-2.92-1.61-4.57,0,0,0-.01,0-.02,.7-2.95,2.63-8.16,6.1-8.55,.97-.11,1.81-.11,2.56-.04-.2,.32-.36,.63-.51,.92-.71,1.42-1.45,2.89-1.79,4.56-.4,2.01-.1,3.89,.86,5.31,.22,.33,.58,.5,.95,.5,.22,0,.45-.06,.65-.2,.53-.36,.66-1.07,.31-1.6-.6-.89-.79-2.19-.51-3.56,.28-1.37,.94-2.7,1.59-3.98,.24-.48,.49-.99,.83-1.25,.04-.03,.09-.06,.13-.08,1.05,.47,1.67,1.07,2,1.47-1.21,2.44-4.54,9.31-4.73,11.5-.15,1.71-.97,2.98-3.02,4.67-1.14,.94-2.31,2.86-3.66,5.1-1.69,2.79-4.01,6.6-5.78,7-2.45,.54-13.31-2.83-19.59-5.09-.6-.21-1.26,.1-1.47,.69-.21,.6,.1,1.26,.69,1.47,1.33,.48,10.65,3.79,16.66,4.9,.06,.03,.1,.08,.17,.1,8.18,2.8,17.88,15,17.97,15.12l.22,.28,.35,.1c4.49,1.36,9.98,8.98,10.96,13.9,.19,.93-.4,2.31-1.43,3.45Z"/></g></svg>