<svg xmlns="http://www.w3.org/2000/svg" version="1.1" xmlns:xlink="http://www.w3.org/1999/xlink" xmlns:svgjs="http://svgjs.com/svgjs" width="260" height="260"><svg width="260" height="260" viewBox="0 0 260 260" fill="none" xmlns="http://www.w3.org/2000/svg">
<path d="M112.794 0H124.897C172.739 0 207.055 20.1716 227.843 60.5148C227.843 78.7404 234.868 95.8744 248.917 111.917H252.049V117.897L245.927 127.01C245.927 129.003 246.923 130 248.917 130C248.917 143.1 240.848 164.268 224.711 193.505L227.843 199.628C211.137 235.889 185.934 254.02 152.235 254.02C152.235 256.013 146.16 258.007 134.01 260C90.5341 260 57.2629 246.9 34.1961 220.701C30.2092 202.76 23.1373 182.589 12.9803 160.186C12.9803 149.65 10.9869 136.55 7 120.887C15.5433 72.95 20.5743 47.7474 22.0931 45.2793C30.4465 25.2501 37.5184 15.188 43.3089 15.0931C47.2008 17.0865 50.2384 18.0832 52.4217 18.0832C52.4217 10.8689 72.5458 4.84118 112.794 0ZM58.402 63.5049H31.2059C27.1241 85.7174 25.0832 97.8204 25.0832 99.8138H28.2158C35.2402 93.7386 47.3432 90.701 64.5246 90.701H67.5148C71.5016 91.3655 73.4951 93.3589 73.4951 96.6813V99.8138C73.4951 103.801 61.3921 106.791 37.1862 108.784V120.887C38.5152 133.038 41.5528 139.113 46.299 139.113H64.5246V145.093C64.5246 149.175 62.4838 151.216 58.402 151.216H49.2892C39.2271 151.216 34.1961 148.178 34.1961 142.103H28.2158L31.2059 148.226V151.216H25.0832V157.196C34.7656 169.536 41.8375 188.711 46.299 214.721C68.0369 232.851 87.2118 241.917 103.824 241.917C113.411 241.917 136.573 239.923 173.309 235.936V232.804C163.342 232.804 151.239 231.807 137 229.814V223.834L143.123 214.721L191.534 220.701L194.525 214.721C187.785 214.721 170.651 213.724 143.123 211.731V214.721C139.231 212.727 136.193 211.731 134.01 211.731V202.618C134.01 197.112 146.113 191.037 170.319 184.392V169.299C171.553 157.244 174.59 151.216 179.432 151.216H182.422C182.422 158.05 190.49 172.147 206.628 193.505C211.659 193.505 216.69 183.443 221.721 163.319C205.583 163.319 197.515 157.244 197.515 145.093C197.515 140.442 200.552 134.414 206.628 127.01C198.179 125.016 189.114 124.02 179.432 124.02C179.432 135.98 168.325 144.049 146.113 148.226H143.123C126.036 148.226 113.933 142.15 106.814 130C106.814 122.976 110.848 115.904 118.917 108.784H112.794V105.794C114.882 99.7189 120.958 96.6813 131.02 96.6813H152.235C156.222 96.6813 158.216 99.7189 158.216 105.794H167.329C196.755 109.876 212.893 111.917 215.74 111.917H227.843V108.784C221.768 101.38 216.69 88.2804 212.608 69.4852H209.618C207.624 69.4852 206.628 70.4819 206.628 72.4754L200.505 69.4852C192.436 70.5294 188.402 73.567 188.402 78.598C184.415 78.598 181.425 72.5703 179.432 60.5148H176.441C176.441 76.5571 173.404 84.5783 167.329 84.5783C165.335 81.0661 163.294 72.0007 161.206 57.3823H146.113C134.437 57.3823 118.3 58.4264 97.701 60.5148C90.3917 56.433 82.3231 54.3921 73.4951 54.3921H70.5049L58.402 63.5049ZM118.917 124.02C120.151 130 128.219 132.99 143.123 132.99H158.216C162.298 132.99 164.338 130.997 164.338 127.01V124.02C150.479 121.931 141.367 119.89 137 117.897C128.742 121.979 122.714 124.02 118.917 124.02ZM212.608 142.103V151.216C223.145 151.216 229.22 148.178 230.834 142.103V139.113C230.834 135.031 228.793 132.99 224.711 132.99H221.721C218.873 132.99 215.835 136.028 212.608 142.103ZM179.432 187.525C179.432 191.511 177.391 193.505 173.309 193.505V196.495C182.422 196.495 188.497 197.539 191.534 199.628V196.495C191.534 193.647 188.497 190.657 182.422 187.525H179.432Z" fill="black"></path>
</svg><style>@media (prefers-color-scheme: light) { :root { filter: none; } }
@media (prefers-color-scheme: dark) { :root { filter: invert(100%); } }
</style></svg>