<svg fill="none" height="120" viewBox="0 0 79 120" width="79" xmlns="http://www.w3.org/2000/svg"><path d="m14.3198 13.21h-7.15964v79.1994h7.15964l-.0005-7.2001 7.159.0004v-7.2003h7.1594l-.0002 7.1999h7.1594v14.3998l7.159.0002v13.2007h14.3177l.0004-13.2009h-7.1594v-14.3998l-7.1591.0002v-14.4006h21.4771l.0004-7.1991h-7.1594l.0004-7.2001h-7.1594l.0003-7.1999h-7.1594l.0004-7.1999h-7.1594l.0004-7.2001h-7.1594l.0002-7.2001h-7.1594l.0004-7.1994h-7.1594z" fill="#fff"/><g fill="#000"><path d="m14.319 13.2003h-7.15961v79.1994h7.15961v7.2003h-7.15961v7.2h-7.15939v-106.8h7.15939v5.99998h7.15961z"/><path d="m21.478 20.4006h-7.1594l.0004-7.2003h7.159z"/><path d="m28.6369 27.6001h-7.1593l.0004-7.1995 7.1589-.0008z"/><path d="m35.7961 34.8002h-7.1594l.0002-7.2001 7.1592-.0002z"/><path d="m42.9551 42.0003h-7.1594l.0004-7.2001 7.159-.0002z"/><path d="m50.1141 49.2002h-7.1594l.0004-7.1999 7.159-.0004z"/><path d="m57.2733 56.4001h-7.1594l.0002-7.1999 7.1592-.0005z"/><path d="m64.4323 63.6002v-7.2004l-7.159.0003-.0004 7.2001z"/><path d="m50.1139 85.1996.0002-7.2001 28.6359.0002v-7.2005h-7.1594v-7.1995l-7.1583.0005-.0005 7.199h-21.4771v14.4006z"/><path d="m57.2733 99.5994h-7.1594v-14.3998h7.1594z"/><path d="m57.2729 112.8.0004-13.2006 7.159.0002v13.2004z"/><path d="m42.9551 112.8h14.3178l-.0002 7.2h-14.318z"/><path d="m35.7961 99.5994 7.159.0002v13.2004h-7.1594z"/><path d="m28.6367 85.1996h7.1594v14.3998h-7.1594z"/><path d="m21.4776 85.2v-7.2003h7.1593l-.0002 7.1999z"/><path d="m21.4776 85.2-7.159-.0004.0004 7.2001 7.159.0002z"/></g></svg>